<?xml version="1.0"?>
<!DOCTYPE svg PUBLIC "-//W3C//DTD SVG 1.1//EN" "http://www.w3.org/Graphics/SVG/1.1/DTD/svg11.dtd">
<svg xmlns="http://www.w3.org/2000/svg" xmlns:xl="http://www.w3.org/1999/xlink" version="1.1" viewBox="520 137 296 296" width="296pt" height="296pt"><metadata xmlns:dc="http://purl.org/dc/elements/1.1/"><dc:date>2013-04-21 12:39Z</dc:date><!-- Produced by OmniGraffle Professional 5.4.2 --></metadata><defs></defs><g stroke="none" stroke-opacity="1" stroke-dasharray="none" fill="none" fill-opacity="1"><title>Canvas 1</title><g><title>Layer 1</title><path d="M 556 141 L 780 141 C 797.6731 141 812 155.32689 812 173 L 812 397 C 812 414.6731 797.6731 429 780 429 L 556 429 C 538.3269 429 524 414.6731 524 397 C 524 397 524 397 524 397 L 524 173 C 524 155.32689 538.3269 141 556 141 C 556 141 556 141 556 141 Z" fill="white"/><path d="M 556 141 L 780 141 C 797.6731 141 812 155.32689 812 173 L 812 397 C 812 414.6731 797.6731 429 780 429 L 556 429 C 538.3269 429 524 414.6731 524 397 C 524 397 524 397 524 397 L 524 173 C 524 155.32689 538.3269 141 556 141 C 556 141 556 141 556 141 Z" stroke="red" stroke-linecap="round" stroke-linejoin="round" stroke-width="6"/><rect x="530" y="204" width="276" height="162" id="path"/><clipPath id="clip_path"><use xl:href="#path"/></clipPath><g clip-path="url(#clip_path)"><image xl:href="image4.tiff" width="276" height="162" transform="translate(529.5 203.5)"/></g></g></g></svg>
