<?xml version="1.0"?>
<!DOCTYPE svg PUBLIC "-//W3C//DTD SVG 1.1//EN" "http://www.w3.org/Graphics/SVG/1.1/DTD/svg11.dtd">
<svg xmlns="http://www.w3.org/2000/svg" xmlns:xl="http://www.w3.org/1999/xlink" version="1.1" viewBox="16 745 458 457" width="458pt" height="457pt"><metadata xmlns:dc="http://purl.org/dc/elements/1.1/"><dc:date>2013-04-21 11:51Z</dc:date><!-- Produced by OmniGraffle Professional 5.4.2 --></metadata><defs></defs><g stroke="none" stroke-opacity="1" stroke-dasharray="none" fill="none" fill-opacity="1"><title>Canvas 1</title><g><title>Layer 1</title><path d="M 256.32034 770.65037 L 312.99232 871.02686 C 314.84658 874.3111 318.03575 876.6282 321.73225 877.3768 L 434.70857 900.257 C 441.74542 901.68213 446.29462 908.5419 444.8695 915.57875 C 444.3997 917.8985 443.3055 920.046 441.70493 921.7896 L 363.75381 1006.7059 C 361.20331 1009.48427 359.98516 1013.23337 360.41546 1016.9803 L 373.56668 1131.4975 C 374.38582 1138.63034 369.26757 1145.0767 362.13475 1145.8958 C 359.78336 1146.16585 357.40286 1145.7888 355.25 1144.8054 L 250.40158 1096.91004 C 246.97102 1095.34295 243.02898 1095.34295 239.59842 1096.91004 L 134.75001 1144.8054 C 128.21942 1147.7886 120.50696 1144.9129 117.523754 1138.3823 C 116.540314 1136.2294 116.16328 1133.8489 116.433316 1131.4975 L 129.58454 1016.9803 C 130.01484 1013.23337 128.796686 1009.48427 126.246186 1006.7059 L 48.295073 921.7896 C 43.43981 916.5005 43.791502 908.27685 49.0806 903.4216 C 50.824193 901.821 52.971672 900.7268 55.291426 900.257 L 168.26775 877.3768 C 171.96425 876.6282 175.15342 874.3111 177.00768 871.02686 L 233.67966 770.65037 C 237.20953 764.39832 245.13935 762.19156 251.3914 765.72143 C 253.45244 766.8851 255.15669 768.58933 256.32034 770.65037 Z" stroke="blue" stroke-linecap="round" stroke-linejoin="round" stroke-width="8"/><path d="M 256.12034 813.8504 L 299.06743 889.91757 C 300.9217 893.2018 304.11087 895.5189 307.80736 896.2675 L 393.42293 913.60656 C 400.45978 915.0317 405.00898 921.89145 403.58386 928.9283 C 403.11406 931.24805 402.01987 933.39553 400.4193 935.1391 L 341.34648 999.4903 C 338.79598 1002.2687 337.57782 1006.0178 338.00812 1009.7647 L 347.97437 1096.548 C 348.7935 1103.6808 343.67525 1110.12716 336.54243 1110.9463 C 334.19104 1111.21633 331.81054 1110.8393 329.65767 1109.85586 L 250.20158 1073.5599 C 246.77102 1071.9928 242.82899 1071.9928 239.39843 1073.5599 L 159.94233 1109.85586 C 153.41174 1112.8391 145.69929 1109.96335 142.71608 1103.43276 C 141.73264 1101.2799 141.355605 1098.8994 141.62564 1096.548 L 151.59189 1009.7647 C 152.02218 1006.0178 150.80403 1002.2687 148.25353 999.4903 L 89.180717 935.1391 C 84.325454 929.85 84.677146 921.6264 89.966243 916.77114 C 91.70984 915.17056 93.857316 914.07636 96.17707 913.60656 L 181.79264 896.2675 C 185.48914 895.5189 188.67831 893.2018 190.53258 889.91757 L 233.47967 813.8504 C 237.00954 807.59834 244.93935 805.39157 251.1914 808.92145 C 253.25244 810.0851 254.95669 811.78935 256.12034 813.8504 Z" fill="blue"/><path d="M 256.12034 813.8504 L 299.06743 889.91757 C 300.9217 893.2018 304.11087 895.5189 307.80736 896.2675 L 393.42293 913.60656 C 400.45978 915.0317 405.00898 921.89145 403.58386 928.9283 C 403.11406 931.24805 402.01987 933.39553 400.4193 935.1391 L 341.34648 999.4903 C 338.79598 1002.2687 337.57782 1006.0178 338.00812 1009.7647 L 347.97437 1096.548 C 348.7935 1103.6808 343.67525 1110.12716 336.54243 1110.9463 C 334.19104 1111.21633 331.81054 1110.8393 329.65767 1109.85586 L 250.20158 1073.5599 C 246.77102 1071.9928 242.82899 1071.9928 239.39843 1073.5599 L 159.94233 1109.85586 C 153.41174 1112.8391 145.69929 1109.96335 142.71608 1103.43276 C 141.73264 1101.2799 141.355605 1098.8994 141.62564 1096.548 L 151.59189 1009.7647 C 152.02218 1006.0178 150.80403 1002.2687 148.25353 999.4903 L 89.180717 935.1391 C 84.325454 929.85 84.677146 921.6264 89.966243 916.77114 C 91.70984 915.17056 93.857316 914.07636 96.17707 913.60656 L 181.79264 896.2675 C 185.48914 895.5189 188.67831 893.2018 190.53258 889.91757 L 233.47967 813.8504 C 237.00954 807.59834 244.93935 805.39157 251.1914 808.92145 C 253.25244 810.0851 254.95669 811.78935 256.12034 813.8504 Z" stroke="blue" stroke-linecap="round" stroke-linejoin="round" stroke-width="7"/><path d="M 304 938 C 314.9989 940.9997 333.16705 937.6676 337 947 C 340.83295 956.3324 333.9993 984.83425 327 994 C 320.0007 1003.16575 305.6656 999.3336 295 1002" stroke="white" stroke-linecap="round" stroke-linejoin="round" stroke-width="14"/><path d="M 304 918 L 277 1050 L 205 1049 L 183 914" stroke="white" stroke-linecap="round" stroke-linejoin="round" stroke-width="14"/><path d="M 295 958 C 283.3345 959.6665 272.6654 962.3334 260 963 C 247.3346 963.6666 230.49885 963.16655 219 962 C 207.50115 960.83345 200.3324 957.9998 191 956" stroke="white" stroke-linecap="round" stroke-linejoin="round" stroke-width="14"/><path d="M 304 917 C 289.50145 918.3332 274.58192 920.50005 260.5 921 C 246.41808 921.49995 232.41538 921.16655 219.5 920 C 206.58462 918.83345 195.16545 915.9998 183 914" stroke="white" stroke-linecap="round" stroke-linejoin="round" stroke-width="14"/></g></g></svg>
