<?xml version="1.0"?>
<!DOCTYPE svg PUBLIC "-//W3C//DTD SVG 1.1//EN" "http://www.w3.org/Graphics/SVG/1.1/DTD/svg11.dtd">
<svg xmlns="http://www.w3.org/2000/svg" xmlns:xl="http://www.w3.org/1999/xlink" version="1.1" viewBox="495 734 457 458" width="457pt" height="458pt"><metadata xmlns:dc="http://purl.org/dc/elements/1.1/"><dc:date>2013-04-21 11:51Z</dc:date><!-- Produced by OmniGraffle Professional 5.4.2 --></metadata><defs><filter id="Shadow" filterUnits="userSpaceOnUse"><feGaussianBlur in="SourceAlpha" result="blur" stdDeviation="3.488"/><feOffset in="blur" result="offset" dx="0" dy="4"/><feFlood flood-color="black" flood-opacity=".75" result="flood"/><feComposite in="flood" in2="offset" operator="in"/></filter></defs><g stroke="none" stroke-opacity="1" stroke-dasharray="none" fill="none" fill-opacity="1"><title>Canvas 1</title><g><title>Layer 1</title><g><use xl:href="#id38_Graphic" filter="url(#Shadow)"/></g><path d="M 734.52033 759.8504 L 791.1923 860.2269 C 793.0466 863.5111 796.23575 865.8282 799.93225 866.5768 L 912.90857 889.457 C 919.9454 890.88214 924.4946 897.7419 923.0695 904.77876 C 922.5997 907.0985 921.5055 909.246 919.9049 910.9896 L 841.9538 995.9059 C 839.4033 998.6843 838.18516 1002.4334 838.61545 1006.1803 L 851.7667 1120.69754 C 852.5858 1127.83036 847.46757 1134.2767 840.33475 1135.0958 C 837.98335 1135.36587 835.60285 1134.9888 833.45 1134.0054 L 728.60157 1086.11006 C 725.171 1084.54296 721.229 1084.54296 717.7984 1086.11006 L 612.95 1134.0054 C 606.4194 1136.9886 598.70696 1134.1129 595.72375 1127.5823 C 594.7403 1125.4294 594.36328 1123.0489 594.6333 1120.69754 L 607.78454 1006.1803 C 608.21484 1002.4334 606.9967 998.6843 604.4462 995.9059 L 526.49507 910.9896 C 521.6398 905.7005 521.9915 897.47686 527.2806 892.6216 C 529.0242 891.021 531.17167 889.92683 533.49142 889.457 L 646.46775 866.5768 C 650.16424 865.8282 653.3534 863.5111 655.20768 860.2269 L 711.87966 759.8504 C 715.40953 753.59834 723.33934 751.39157 729.5914 754.92145 C 731.65243 756.0851 733.3567 757.78935 734.52033 759.8504 Z" stroke="red" stroke-linecap="round" stroke-linejoin="round" stroke-width="8"/><path d="M 734.32034 803.0504 L 777.26743 879.1176 C 779.1217 882.4018 782.31086 884.7189 786.00736 885.4675 L 871.62293 902.8066 C 878.6598 904.2317 883.209 911.09146 881.78386 918.1283 C 881.31406 920.44806 880.21986 922.59554 878.6193 924.33914 L 819.54647 988.6903 C 816.99597 991.4687 815.7778 995.2178 816.2081 998.9647 L 826.17436 1085.748 C 826.9935 1092.88084 821.87525 1099.3272 814.74243 1100.1463 C 812.39103 1100.41635 810.01053 1100.0393 807.85767 1099.0559 L 728.40158 1062.7599 C 724.971 1061.1928 721.029 1061.1928 717.59842 1062.7599 L 638.14233 1099.0559 C 631.61174 1102.0391 623.8993 1099.16336 620.91608 1092.6328 C 619.93264 1090.4799 619.5556 1088.0994 619.82564 1085.748 L 629.7919 998.9647 C 630.2222 995.2178 629.00403 991.4687 626.45353 988.6903 L 567.3807 924.33914 C 562.52545 919.05004 562.87714 910.8264 568.16624 905.97115 C 569.90983 904.37057 572.0573 903.2764 574.37707 902.8066 L 659.99264 885.4675 C 663.68914 884.7189 666.8783 882.4018 668.73257 879.1176 L 711.67966 803.0504 C 715.20953 796.79835 723.13935 794.5916 729.3914 798.12146 C 731.45244 799.2851 733.1567 800.98936 734.32034 803.0504 Z" fill="red"/><path d="M 734.32034 803.0504 L 777.26743 879.1176 C 779.1217 882.4018 782.31086 884.7189 786.00736 885.4675 L 871.62293 902.8066 C 878.6598 904.2317 883.209 911.09146 881.78386 918.1283 C 881.31406 920.44806 880.21986 922.59554 878.6193 924.33914 L 819.54647 988.6903 C 816.99597 991.4687 815.7778 995.2178 816.2081 998.9647 L 826.17436 1085.748 C 826.9935 1092.88084 821.87525 1099.3272 814.74243 1100.1463 C 812.39103 1100.41635 810.01053 1100.0393 807.85767 1099.0559 L 728.40158 1062.7599 C 724.971 1061.1928 721.029 1061.1928 717.59842 1062.7599 L 638.14233 1099.0559 C 631.61174 1102.0391 623.8993 1099.16336 620.91608 1092.6328 C 619.93264 1090.4799 619.5556 1088.0994 619.82564 1085.748 L 629.7919 998.9647 C 630.2222 995.2178 629.00403 991.4687 626.45353 988.6903 L 567.3807 924.33914 C 562.52545 919.05004 562.87714 910.8264 568.16624 905.97115 C 569.90983 904.37057 572.0573 903.2764 574.37707 902.8066 L 659.99264 885.4675 C 663.68914 884.7189 666.8783 882.4018 668.73257 879.1176 L 711.67966 803.0504 C 715.20953 796.79835 723.13935 794.5916 729.3914 798.12146 C 731.45244 799.2851 733.1567 800.98936 734.32034 803.0504 Z" stroke="red" stroke-linecap="round" stroke-linejoin="round" stroke-width="7"/><path d="M 722 1030.5 C 729.0603 990.83733 729.98714 933.49783 743.183 911.50003 C 756.37883 889.50223 781.8516 902.83293 801.183 898.50003" stroke="white" stroke-linecap="round" stroke-linejoin="round" stroke-width="14"/><path d="M 732.3451 949.6116 C 736.9573 937.5756 735.44015 921.90243 746.183 913.50003 C 756.9258 905.09763 779.93506 903.961 796.80857 899.1922" stroke="white" stroke-linecap="round" stroke-linejoin="round" stroke-width="13"/><g id="id38_Graphic"><ellipse cx="686.50003" cy="1024.158" rx="41.683018" ry="39.65804" fill="white"/></g></g></g></svg>
